<svg xmlns="http://www.w3.org/2000/svg" viewBox="0 0 512 512" role="img" aria-label="Akkudoktor EOS">
  <rect width="512" height="512" rx="96" fill="#050505"/>
  <circle cx="205" cy="303" r="45" fill="#00e64d"/>
  <circle cx="310" cy="208" r="45" fill="#00e64d"/>
  <path d="M184 267c22-52 64-96 118-126 28-16 59-22 86-14 13 4 22 11 28 20 7 11 5 25-3 35-10 12-26 16-41 10-13-5-27-3-43 6-42 24-75 58-94 102l34 13-91 72 10-118Z" fill="#2d993a"/>
  <path d="M327 245c-22 52-64 96-118 126-28 16-59 22-86 14-13-4-22-11-28-20-7-11-5-25 3-35 10-12 26-16 41-10 13 5 27 3 43-6 42-24 75-58 94-102l-34-13 91-72-6 118Z" fill="#2d993a"/>
  <path d="M184 267c22-52 64-96 118-126 28-16 59-22 86-14 13 4 22 11 28 20-13-3-31 1-53 14-50 29-92 73-117 123l23 29-91 72 10-118Z" fill="#268634"/>
  <path d="M327 245c-22 52-64 96-118 126-28 16-59 22-86 14-13-4-22-11-28-20 13 3 31-1 53-14 50-29 92-73 117-123l-23-29 91-72-6 118Z" fill="#37a742"/>
</svg>
